<svg xmlns="http://www.w3.org/2000/svg" width="25" height="21" viewBox="0 0 22 18" fill="none">
								<path d="M10.9996 4.70328L11.9897 3.70983C13.636 2.05781 16.1884 2.00757 17.8907 3.59366V3.59366C19.8065 5.37864 19.9059 8.52072 18.1073 10.4395L16.0996 12.5815L12.2673 16.1333C11.5399 16.8074 10.4583 16.8076 9.73066 16.1337L8.59209 15.0791" stroke="#fff" stroke-width="1.5" stroke-linecap="round"></path>
								<path d="M10.999 4.70331L10.0093 3.7101C8.3631 2.05796 5.8106 2.00764 4.10827 3.59375V3.59375C2.19257 5.37868 2.09313 8.52068 3.89163 10.4394L5.8995 12.5815L9.73108 16.1332C10.4584 16.8074 11.54 16.8078 12.2676 16.134L13.4069 15.079" stroke="#fff" stroke-width="1.5" stroke-linecap="round"></path>
							</svg>