<svg xmlns="http://www.w3.org/2000/svg" width="28" height="29" viewBox="0 0 28 29" fill="none">
								<path d="M3.75159 11.5114V23.9209C3.75159 25.2418 4.82237 26.3125 6.14325 26.3125H21.8539C23.1748 26.3125 24.2456 25.2418 24.2456 23.9209V11.5114" stroke="white" stroke-width="1.79375"></path>
								<path d="M10.0133 26.9578V20.5824C10.0133 19.5918 10.8164 18.7887 11.8071 18.7887H16.1894C17.1801 18.7887 17.9832 19.5918 17.9832 20.5824V26.9578" stroke="white" stroke-width="1.79375"></path>
								<path fill-rule="evenodd" clip-rule="evenodd" d="M19.6914 12.168C19.0126 12.9842 17.9895 13.5038 16.845 13.5038C15.7005 13.5038 14.6774 12.9842 13.9986 12.168C13.3198 12.9842 12.2967 13.5038 11.1522 13.5038C10.0077 13.5038 8.98458 12.9842 8.30583 12.168C7.62707 12.9842 6.60393 13.5038 5.45944 13.5038C3.70885 13.5038 2.24408 12.289 1.85833 10.6573C1.6837 9.91865 1.95533 9.2465 2.24863 8.78559L5.20647 4.13756C5.7812 3.23442 6.7775 2.6875 7.848 2.6875H20.1492C21.2197 2.6875 22.216 3.23442 22.7907 4.13756L25.7486 8.78559C26.0419 9.2465 26.3135 9.91865 26.1389 10.6573C25.7531 12.289 24.2883 13.5038 22.5378 13.5038C21.3933 13.5038 20.3701 12.9842 19.6914 12.168ZM6.64731 5.05445C6.90855 4.64393 7.36141 4.39533 7.848 4.39533H20.1492C20.6358 4.39533 21.0886 4.64393 21.3499 5.05445L24.3077 9.70249C24.4794 9.9723 24.5015 10.1601 24.4769 10.2644C24.2691 11.1429 23.4787 11.7959 22.5378 11.7959C21.4373 11.7959 20.5453 10.9039 20.5453 9.80347H18.8375C18.8375 10.9039 17.9454 11.7959 16.845 11.7959C15.7451 11.7959 14.8534 10.9048 14.8525 9.80516V9.80347H13.1447L13.1447 9.80516C13.1438 10.9048 12.2521 11.7959 11.1522 11.7959C10.0518 11.7959 9.15974 10.9039 9.15974 9.80347H7.45191C7.45191 10.9039 6.55985 11.7959 5.45944 11.7959C4.51852 11.7959 3.72804 11.1429 3.52035 10.2644C3.4957 10.1601 3.51776 9.9723 3.68946 9.70249L6.64731 5.05445Z" fill="white"></path>
							</svg>