<svg xmlns="http://www.w3.org/2000/svg" width="12" height="10" viewBox="0 0 12 10" fill="none">
				<path d="M6.19525 0.528575C6.4556 0.268226 6.87771 0.268226 7.13806 0.528575L11.1381 4.52858C11.2631 4.6536 11.3333 4.82317 11.3333 4.99998C11.3333 5.17679 11.2631 5.34636 11.1381 5.47138L7.13806 9.47138C6.87771 9.73173 6.4556 9.73173 6.19525 9.47138C5.9349 9.21103 5.9349 8.78892 6.19525 8.52857L9.05718 5.66665L1.33332 5.66665C0.965133 5.66665 0.666656 5.36817 0.666656 4.99998C0.666656 4.63179 0.965133 4.33331 1.33332 4.33331H9.05718L6.19525 1.47138C5.9349 1.21103 5.9349 0.788925 6.19525 0.528575Z" fill="#333333"></path>
			</svg>