<svg xmlns="http://www.w3.org/2000/svg" width="20" height="19" viewBox="0 0 20 19" fill="none">
			<path d="M18.334 3.56671C18.334 2.186 17.2147 1.06671 15.834 1.06671C14.4533 1.06671 13.334 2.186 13.334 3.56671C13.334 4.94742 14.4533 6.06671 15.834 6.06671C17.2147 6.06671 18.334 4.94742 18.334 3.56671Z" stroke="#55585C" stroke-width="1.5"></path>
			<path d="M6.66699 9.40002C6.66699 8.01931 5.5477 6.90002 4.16699 6.90002C2.78628 6.90002 1.66699 8.01931 1.66699 9.40002C1.66699 10.7807 2.78628 11.9 4.16699 11.9C5.5477 11.9 6.66699 10.7807 6.66699 9.40002Z" stroke="#55585C" stroke-width="1.5"></path>
			<path d="M18.334 15.2334C18.334 13.8527 17.2147 12.7334 15.834 12.7334C14.4533 12.7334 13.334 13.8527 13.334 15.2334C13.334 16.6141 14.4533 17.7334 15.834 17.7334C17.2147 17.7334 18.334 16.6141 18.334 15.2334Z" stroke="#55585C" stroke-width="1.5"></path>
			<path d="M13.3333 3.9834L6.25 7.7334" stroke="#55585C" stroke-width="1.5" stroke-linecap="round"></path>
			<path d="M13.3333 14.8167L6.25 11.0667" stroke="#55585C" stroke-width="1.5" stroke-linecap="round"></path>
		</svg>